<?xml version="1.0" encoding="UTF-8"?>
<svg id="Calque_2" data-name="Calque 2" xmlns="http://www.w3.org/2000/svg" viewBox="0 0 443.78 480.02">
  <defs>
    <style>
      .cls-1 {
        fill: #155dfc;
        fill-rule: evenodd;
      }
    </style>
  </defs>
  <g id="Calque_1-2" data-name="Calque 1">
    <g id="SVGRepo_iconCarrier" data-name="SVGRepo iconCarrier">
      <path class="cls-1" d="M172.32,214.08c-23.63-.49-42.4-20.04-41.91-43.67,.49-23.63,20.04-42.4,43.67-41.91,23.32,.48,41.96,19.54,41.92,42.86-.31,23.84-19.84,42.94-43.68,42.72Z"/>
      <path class="cls-1" d="M440.24,285.6l-58.16-86.4v-7.2C382.09,86.37,296.76,.58,191.12,0c-15.3-.11-30.55,1.77-45.36,5.6C59.96,26.61-.27,103.67,.08,192c-1.12,36,8.88,71.48,28.64,101.6,33.44,48,56,86.4,42.16,138.4-3.33,11.7-.63,24.29,7.2,33.6,6.87,9.32,17.86,14.7,29.44,14.4h156.8c18.11,.12,33.75-12.64,37.28-30.4,.92-3.12,1.46-6.35,1.6-9.6,1.48-9.36,9.64-16.2,19.12-16h11.28c17.22,.54,32.63-10.65,37.44-27.2,6.95-25.05,10.93-50.82,11.84-76.8h41.36c7.67-.94,14.3-5.78,17.52-12.8,3.15-7,2.58-15.11-1.52-21.6Zm-158.72-66.96l-8,12.56c-3.24,4.59-8.46,7.38-14.08,7.52-1.97-.12-3.92-.56-5.76-1.28l-21.2-8c-9.04,7.79-19.5,13.76-30.8,17.6l-3.84,23.28c-1.37,7.73-8.15,13.32-16,13.2h-16c-7.85,.12-14.63-5.47-16-13.2l-3.84-23.28c-10.86-3.19-20.92-8.64-29.52-16l-22.48,8c-1.84,.72-3.79,1.16-5.76,1.28-5.75-.08-11.07-3.1-14.08-8l-8-13.2c-3.93-6.71-2.29-15.29,3.84-20.08l18.64-15.12c-1.24-5.57-1.88-11.25-1.92-16.96,.07-5.39,.71-10.75,1.92-16l-18.24-15.92c-6.2-4.75-7.85-13.38-3.84-20.08l8-13.2c2.9-5.02,8.28-8.08,14.08-8,1.97,.12,3.92,.56,5.76,1.28l22.48,8c8.7-7.44,18.71-13.19,29.52-16.96l3.2-22.08c1.37-7.64,8.25-13.05,16-12.56h16c7.54-.5,14.32,4.55,16,11.92l3.84,22.64c10.75,3.44,20.76,8.87,29.52,16l22.48-8c1.84-.72,3.79-1.16,5.76-1.28,5.75,.08,11.07,3.1,14.08,8l8,13.2c3.99,6.8,2.42,15.49-3.68,20.48l-18.64,15.12c1.27,5.56,1.91,11.25,1.92,16.96-.07,5.39-.71,10.75-1.92,16l18.64,15.44c6.32,4.95,7.99,13.81,3.92,20.72Z"/>
    </g>
  </g>
</svg>